# xmcd
#
# Track frame offsets:
#  150
#  12657
#  26470
#  37592
#  53480
#  65725
#  75432
#  92105
#  105170
#  114542
#  129760
#  143060
#  155067
#  168475
#  179630
#  190037
#  207797
#  216250
#  227467
#  239982
#  252030
#
# Disc length: 3486 seconds
#
# Revision: 0
# Processed by: cddbd v1.5.1PL2 Copyright (c) Steve Scherf et al.
# Submitted via: Collectorz.com_Music_Collector 6.9
#
DISCID=130d9c15
DTITLE=Ann Williamson - The Very Best
DYEAR=1996
DGENRE=
TTITLE0=I Can't Stop Loving You
TTITLE1=I'll Get Over You
TTITLE2=Tiny Bubbles
TTITLE3=Like Strangers
TTITLE4=Cryin' Time
TTITLE5=I Cant Help It If I'm Still In Love With You
TTITLE6=Pal Of My Cradle Days
TTITLE7=She's Got You
TTITLE8=Bonaparte's Retreat
TTITLE9=Maggie
TTITLE10=Four In The Morning
TTITLE11=Invisible Tears
TTITLE12=It Is No Secret
TTITLE13=Don't It Make My Brown Eyes Blue
TTITLE14=Send Me The Pillow
TTITLE15=Forsaking All The Rest
TTITLE16=Tennessee Waltz
TTITLE17=Your Cheating Heart
TTITLE18=I Fall To Pieces
TTITLE19=Room Full Of Roses
TTITLE20=Dear John
EXTD=
EXTT0=
EXTT1=
EXTT2=
EXTT3=
EXTT4=
EXTT5=
EXTT6=
EXTT7=
EXTT8=
EXTT9=
EXTT10=
EXTT11=
EXTT12=
EXTT13=
EXTT14=
EXTT15=
EXTT16=
EXTT17=
EXTT18=
EXTT19=
EXTT20=
PLAYORDER=
